<?xml version="1.0" standalone="no"?>
<!DOCTYPE svg PUBLIC "-//W3C//DTD SVG 1.1//EN" "http://www.w3.org/Graphics/SVG/1.1/DTD/svg11.dtd" >
<svg xmlns="http://www.w3.org/2000/svg">
<metadata>Generated by IcoMoon</metadata>
<defs>
<font id="icomoon" horiz-adv-x="1024">
<font-face units-per-em="1024" ascent="960" descent="-64" />
<missing-glyph horiz-adv-x="1024" />
<glyph unicode="&#x20;" horiz-adv-x="512" d="" />
<glyph unicode="&#xe900;" glyph-name="analys" horiz-adv-x="956" d="M911.588 156.729c0 0-297.87 526.336-297.87 526.336s0.683 212.992 0.683 212.992c0 0 16.612 0 16.612 0 17.522 0 31.63 14.564 31.63 32.085s-14.108 31.858-31.63 31.858c0 0-315.62 0-315.62 0-17.294 0-31.403-14.336-31.403-31.858s14.108-32.085 31.403-32.085c0 0 25.259 0 25.259 0s0.683-212.992 0.683-212.992c0 0-306.29-526.336-306.29-526.336-71.452-120.604-16.156-219.136 122.652-219.136 0 0 631.239 0 631.239 0 138.809 0 193.877 98.532 122.652 219.136zM206.62 323.755c0 0 202.752 341.788 202.752 341.788s0 226.418 0 226.418c0 0 136.988 0 136.988 0s0-226.418 0-226.418c0 0 192.057-341.788 192.057-341.788s-531.797 0-531.797 0z" />
<glyph unicode="&#xe901;" glyph-name="arrows" horiz-adv-x="1078" d="M576.674 371.469c-10.24-10.24-24.253-15.629-37.726-15.629s-27.486 5.389-37.726 15.629c0 0-444.093 444.093-444.093 444.093-20.48 20.48-20.48 53.895 0 74.375 0 0 37.726 37.726 37.726 37.726 20.48 20.48 53.895 20.48 74.375 0 0 0 369.718-369.718 369.718-369.718s369.718 369.718 369.718 369.718c20.48 20.48 53.895 20.48 74.375 0 0 0 37.726-37.726 37.726-37.726 20.48-20.48 20.48-53.895 0-74.375 0 0-444.093-444.093-444.093-444.093zM94.855 540.699c20.48 21.019 53.895 21.019 74.375 0 0 0 369.718-369.179 369.718-369.179s369.718 369.179 369.718 369.179c20.48 21.019 53.895 21.019 74.375 0 0 0 37.726-37.187 37.726-37.187 20.48-20.48 20.48-54.434 0-74.914 0 0-444.093-443.554-444.093-443.554-10.24-10.779-24.253-15.629-37.726-15.629s-27.486 4.851-37.726 15.091c0 0-444.093 444.093-444.093 444.093-20.48 20.48-20.48 54.434 0 74.914 0 0 37.726 37.187 37.726 37.187z" />
<glyph unicode="&#xe902;" glyph-name="arrows-top" horiz-adv-x="1078" d="M983.040 372.008c-20.48-20.48-53.895-20.48-74.375 0 0 0-369.718 369.718-369.718 369.718s-369.718-369.718-369.718-369.718c-20.48-20.48-53.895-20.48-74.375 0 0 0-37.726 37.187-37.726 37.187-20.48 20.48-20.48 54.434 0 74.914 0 0 444.093 444.093 444.093 444.093 10.24 10.24 24.253 15.091 37.726 15.091s27.486-4.851 37.726-15.091c0 0 444.093-444.093 444.093-444.093 20.48-20.48 20.48-54.434 0-74.914 0 0-37.726-37.187-37.726-37.187zM501.221 541.238c10.24 10.779 24.253 15.629 37.726 15.629s27.486-4.851 37.726-15.091c0 0 444.093-444.093 444.093-444.093 20.48-20.48 20.48-54.434 0-74.914 0 0-37.726-37.187-37.726-37.187-20.48-21.019-53.895-21.019-74.375 0 0 0-369.718 369.179-369.718 369.179s-369.718-369.179-369.718-369.179c-20.48-21.019-53.895-21.019-74.375 0 0 0-37.726 37.187-37.726 37.187-20.48 20.48-20.48 54.434 0 74.914 0 0 444.093 443.554 444.093 443.554z" />
<glyph unicode="&#xe903;" glyph-name="camera" horiz-adv-x="1248" d="M371.52 385.92c0-137.28 113.28-248.32 252.8-248.32 139.84 0 253.12 111.040 253.12 248.32s-113.28 248.32-253.12 248.32c-139.52 0-252.8-111.040-252.8-248.32zM1169.28 806.080c0 0-272.32 0-272.32 0-19.52 76.48-39.040 152.96-116.8 152.96 0 0-311.36 0-311.36 0-77.76 0-97.28-76.48-116.8-152.96 0 0-272.64 0-272.64 0-42.56 0-77.76-34.24-77.76-76.16 0 0 0-688 0-688 0-41.92 35.2-76.48 77.76-76.48 0 0 1089.92 0 1089.92 0 42.88 0 78.080 34.56 78.080 76.48 0 0 0 688 0 688 0 41.92-35.2 76.16-78.080 76.16zM624.32 46.72c-190.72 0-345.28 151.68-345.28 339.2 0 187.2 154.56 339.2 345.28 339.2 191.040 0 345.6-152 345.6-339.2 0-187.52-154.56-339.2-345.6-339.2zM1183.36 576c0 0-159.68-0.96-159.68-0.96s0 66.24 0 66.24c0 0 159.68-0.96 159.68-0.96s0-64.32 0-64.32z" />
<glyph unicode="&#xe904;" glyph-name="clock" horiz-adv-x="904" d="M449.054 821.158c-238.231 0-431.285-193.355-431.285-431.586s193.054-431.285 431.285-431.285c238.231 0 431.285 193.054 431.285 431.285s-193.054 431.586-431.285 431.586zM449.054 42.918c-191.247 0-346.654 155.407-346.654 346.654 0 191.548 155.407 346.654 346.654 346.654 191.548 0 346.654-155.106 346.654-346.654 0-191.247-155.106-346.654-346.654-346.654zM856.245 667.859c-70.776 103.304-180.104 178.296-306.899 204.499 33.732 43.671 86.739 71.981 146.372 71.981 102.099 0 184.621-82.824 184.621-184.922 0-33.431-8.734-64.753-24.094-91.558zM348.762 872.358c-126.795-26.202-236.122-101.195-306.899-204.499-15.36 26.805-24.094 58.127-24.094 91.558 0 102.099 82.824 184.922 184.922 184.922 59.332 0 112.339-28.311 146.071-71.981zM387.614 629.308c0 0 0-301.176 0-301.176s66.861 0 66.861 0c0 0-1.205 301.176-1.205 301.176s-65.656 0-65.656 0zM447.849 389.572c0 0 186.127 0 186.127 0s0-61.44 0-61.44c0 0-184.922 0-184.922 0s-1.205 61.44-1.205 61.44z" />
<glyph unicode="&#xe905;" glyph-name="cloud" horiz-adv-x="1161" d="M492.544 938.496c0 0 0 0 0 0 257.365 0 465.92-168.619 465.92-376.832s-208.555-377.173-465.92-377.173c-24.917 0-49.152 1.707-72.704 4.437-100.011-99.669-215.723-117.419-331.093-120.149 0 0 0 24.576 0 24.576 62.464 30.379 112.64 85.675 112.64 149.163 0 8.875-0.683 17.408-2.048 25.941-105.472 69.291-172.715 174.763-172.715 293.205 0 208.213 208.555 376.832 465.92 376.832zM993.28 93.355c0-54.272 35.157-101.717 89.429-127.659 0 0 0-21.163 0-21.163-100.011 2.389-191.829 17.749-278.869 103.083-20.48-2.731-41.301-4.096-62.805-4.096-92.843 0-178.176 25.259-246.101 67.243 140.288 0.341 273.067 45.397 373.419 126.976 50.517 40.96 90.795 89.088 118.784 142.677 30.037 57.344 45.056 118.101 45.056 181.248 0 9.899-0.341 20.139-1.365 30.037 70.656-58.027 114.005-137.216 114.005-224.939 0-101.376-58.368-191.829-149.845-250.88-1.024-7.509-1.707-14.677-1.707-22.528z" />
<glyph unicode="&#xe906;" glyph-name="delivery" horiz-adv-x="1280" d="M1280.284 418.418c0 0-169.529 314.311-169.529 314.311s-229.262-0.853-229.262-0.853c0 0 0 149.618 0 149.618 0 43.52-44.942 78.791-88.747 78.791 0 0-715.093 0-715.093 0-43.804 0-76.8-37.262-76.8-80.498 0 0-0.853-627.484-0.853-627.484s74.24-60.018 74.24-60.018c0 0 110.364-0.853 110.364-0.853-13.369-23.040-27.307-67.698-27.307-96.427 0-86.756 71.111-157.298 158.72-157.298 87.893 0 159.004 70.542 159.004 157.298 0 28.729-3.413 74.24-16.782 97.28 0 0 439.751-0.853 439.751-0.853-13.653-23.040-25.6-67.698-25.6-96.427 0-86.756 71.111-157.298 158.72-157.298 87.893 0 159.004 70.542 159.004 157.298 0 28.729-9.671 73.387-23.040 96.427 0 0 113.209 0.853 113.209 0.853s0 226.133 0 226.133zM883.769 448.284c0 0-0.853 197.12-0.853 197.12s142.507 1.707 142.507 1.707c0 0 110.933-198.827 110.933-198.827s-252.587 0-252.587 0z" />
<glyph unicode="&#xe907;" glyph-name="design" horiz-adv-x="1138" d="M171.52 958.862c0 0-29.867-169.529-29.867-169.529s752.64 0 752.64 0c0 0-30.436-142.507-30.436-142.507s-753.209 0-753.209 0c0 0-36.124-168.391-36.124-168.391s760.889-1.138 760.889-1.138c0 0-50.347-226.133-50.347-226.133s-303.502-100.693-303.502-100.693c0 0-262.827 100.693-262.827 100.693s12.8 83.911 12.8 83.911c0 0-188.587 0-188.587 0s-35.271-214.471-35.271-214.471c0 0 434.916-166.4 434.916-166.4s501.476 166.4 501.476 166.4c0 0 168.96 838.258 168.96 838.258s-941.511 0-941.511 0z" />
<glyph unicode="&#xe908;" glyph-name="dribble" d="M512-47.736c-278.287 0-504.772 226.485-504.772 504.772s226.485 504.772 504.772 504.772c278.287 0 504.772-226.485 504.772-504.772s-226.485-504.772-504.772-504.772zM937.864 387.765c-14.456 4.819-133.12 40.358-268.649 18.673 56.621-154.805 79.511-281.299 83.727-307.802 96.979 65.656 165.647 169.261 184.922 289.129zM680.659 59.482c-6.626 37.948-31.925 169.261-92.16 327.078-1.205-0.602-1.807-0.602-3.012-1.205-243.351-84.932-330.692-253.591-337.92-269.252 72.885-56.621 165.045-90.955 264.433-90.955 59.633 0 116.856 12.047 168.659 34.334zM191.548 167.906c9.638 16.866 128.301 212.631 350.569 284.913 6.024 1.807 11.445 3.614 16.866 4.819-10.842 24.696-22.287 49.393-34.936 73.487-215.040-64.452-424.056-62.042-443.332-61.44 0-4.819 0-9.035 0-13.252 0-110.833 42.165-212.028 110.833-288.527zM89.751 544.979c19.275-0.602 196.969-1.205 398.758 52.405-71.078 127.096-148.781 233.713-159.624 249.374-121.073-57.224-210.824-168.056-239.134-301.779zM410.805 875.671c12.047-15.661 90.353-122.88 160.828-252.386 153.6 57.224 218.654 144.565 226.485 156.009-76.499 67.464-176.489 108.424-286.118 108.424-34.936 0-68.668-4.216-101.195-12.047zM845.704 729.299c-9.035-12.649-81.318-105.412-240.941-170.466 10.24-20.48 19.878-40.96 28.913-62.042 3.012-7.831 6.626-15.059 9.035-22.287 143.962 18.071 286.118-10.842 300.574-13.854-0.602 101.798-37.346 195.162-97.581 268.649z" />
<glyph unicode="&#xe909;" glyph-name="facebook" horiz-adv-x="512" d="M317.44-2.56c0 0-188.8 2.56-188.8 2.56s0 444.16 0 444.16c0 0-128.64 1.92-128.64 1.92s0 194.56 0 194.56c0 0 128.64 0 128.64 0s0 114.56 0 114.56c0 131.2 43.52 204.8 198.4 204.8 0 0 120.32 0 120.32 0s-1.92-194.56-1.92-194.56c0 0-68.48 3.84-68.48 3.84-60.16 0-56.96-10.24-56.96-51.84 0 0 1.28-76.8 1.28-76.8s128.64 0 128.64 0c0 0-3.2-196.48-3.2-196.48s-127.36 1.92-127.36 1.92c0 0-1.92-448.64-1.92-448.64z" />
<glyph unicode="&#xe90a;" glyph-name="finger" horiz-adv-x="990" d="M903.851 381.781c71.68 0 31.403-188.757-31.403-188.757 31.403 0 0-157.355-63.147-157.355 0-63.147-61.781-100.693-124.587-100.693-265.899 0-175.787 74.069-444.075 101.717 0 0-2.389 502.443-2.389 502.443 236.885 70.997 476.843 249.173 476.843 408.917 51.883 0 186.027-49.493-2.389-364.203 0 0 189.781 0 189.781 0 94.549 0 64.171-202.069 1.365-202.069zM171.349 539.136c0 0 0-501.077 0-501.077s71.68 0 71.68 0c0 0 0-34.133 0-34.133s-125.952 0-125.952 0c-34.475 0-83.627 42.667-83.627 94.549 0 0-1.365 376.491-1.365 376.491 0 51.883 48.128 110.251 82.603 110.251 0 0 128.341 0 128.341 0s0-46.080 0-46.080c0 0-71.68 0-71.68 0z" />
<glyph unicode="&#xe90b;" glyph-name="fynalis" horiz-adv-x="979" d="M893.551 361.85c-51.423 91.047-20.48 207.694 69.231 260.675 0 0-96.39 170.518-96.39 170.518-27.603-16.473-59.659-25.823-93.941-25.823-102.845 0-186.546 85.704-186.546 191.666 0 0-192.779 0-192.779 0 0.223-32.723-7.791-65.892-24.932-96.167-51.423-91.047-165.843-121.99-255.777-69.231 0 0-96.39-170.518-96.39-170.518 27.603-16.25 51.868-39.624 68.786-69.899 51.423-90.824 20.703-207.249-68.786-260.452 0 0 96.612-170.518 96.612-170.518 27.381 16.25 59.214 25.6 93.273 25.6 102.845 0 186.101-85.259 186.546-190.776 0 0 193.002 0 193.002 0-0.223 32.501 7.791 65.224 24.932 95.277 51.2 90.824 165.398 121.767 255.11 69.454 0 0 96.612 170.518 96.612 170.518-27.603 16.028-51.423 39.624-68.563 69.677zM489.294 255.221c-109.523 0-198.567 90.602-198.567 202.797 0 111.972 89.043 202.797 198.567 202.797 109.746 0 198.79-90.824 198.79-202.797 0-112.195-89.043-202.797-198.79-202.797z" />
<glyph unicode="&#xe90c;" glyph-name="google" horiz-adv-x="1265" d="M663.191 961.807c0 0-302.984 0-302.984 0-137.336 0-266.24-113.242-266.24-230.099 0-118.664 93.365-214.438 233.111-214.438 9.638 0 19.275 0 28.311 0.602-9.035-16.866-15.661-35.539-15.661-55.416 0-33.129 18.071-59.633 41.562-81.318-17.468 0-34.334-0.602-53.007-0.602-169.261 0-328.282-103.002-328.282-211.426 0-106.616 171.068-175.285 340.932-175.285 193.355 0 318.645 106.014 318.645 213.233 0 85.534-44.574 136.734-125.289 192.151-27.708 18.673-80.715 64.452-80.715 91.558 0 31.925 9.638 47.586 59.031 84.932 50.598 37.948 86.136 91.558 86.136 154.202 0 74.692-34.334 146.974-98.786 171.068 0 0 161.431-1.807 161.431-1.807s1.807 62.645 1.807 62.645zM558.381 221.515c-12.047-8.433-12.649-25.901-12.649-36.141 0-86.739-63.849-129.506-203.595-129.506-117.459 0-220.461 56.621-220.461 143.36 0 84.329 121.675 154.805 239.134 153.6 27.106 0 52.405-4.819 75.896-11.445 63.247-43.369 109.026-67.464 121.675-116.254zM371.049 547.388c-78.908 1.807-153.6 84.932-166.852 184.922-13.854 99.991 39.153 177.092 117.459 174.682 78.908-2.409 153.6-82.522 167.454-183.115 13.252-99.991-39.153-178.899-118.061-176.489zM963.162 723.275c0 0 0 238.532 0 238.532s-59.633 0-59.633 0c0 0 0-242.146 0-242.146s-241.544-1.807-241.544-1.807c0 0 3.614-59.031 3.614-59.031s239.736 1.807 239.736 1.807c0 0-1.807-243.953-1.807-243.953s59.633 1.807 59.633 1.807c0 0-1.807 240.339-1.807 240.339s243.351 1.807 243.351 1.807c0 0 1.807 62.645 1.807 62.645s-243.351 0-243.351 0z" />
<glyph unicode="&#xe90d;" glyph-name="house" horiz-adv-x="1201" d="M1198.786 359.018c0 0-211.509 200.21-211.509 200.21s0 363.697 0 363.697c0 0-175.492 1.412-175.492 1.412s0-192.794 0-192.794c0 0-212.568 228.105-212.568 228.105s-598.51-600.629-598.51-600.629c0 0 1.059-34.251 1.059-34.251s141.594 1.059 141.594 1.059c0 0-1.059-388.414-1.059-388.414s384.883 0 384.883 0c0 0 0 245.76 0 245.76s145.126 1.059 145.126 1.059c0 0-1.059-247.879-1.059-247.879s387.001 1.059 387.001 1.059c0 0 1.059 388.414 1.059 388.414s140.535-1.059 140.535-1.059c0 0-1.059 34.251-1.059 34.251z" />
<glyph unicode="&#xe90e;" glyph-name="left-arrow" d="M625.571 427.52c0 0 340.713-340.713 340.713-340.713 18.618-18.618 18.618-49.338 0-67.956 0 0-34.444-34.444-34.444-34.444-19.549-19.549-50.269-19.549-68.887 0 0 0-408.669 407.738-408.669 407.738-9.309 10.24-13.964 22.342-13.964 35.375 0 12.102 4.655 25.135 13.964 34.444 0 0 408.669 408.669 408.669 408.669 18.618 18.618 49.338 18.618 68.887 0 0 0 34.444-34.444 34.444-34.444 18.618-19.549 18.618-50.269 0-68.887 0 0-340.713-339.782-340.713-339.782zM269.964 427.52c0 0 340.713-340.713 340.713-340.713 18.618-18.618 18.618-49.338 0-67.956 0 0-34.444-34.444-34.444-34.444-19.549-19.549-50.269-19.549-68.887 0 0 0-408.669 407.738-408.669 407.738-9.309 10.24-13.964 22.342-13.964 35.375 0 12.102 4.655 25.135 13.964 34.444 0 0 408.669 408.669 408.669 408.669 18.618 18.618 49.338 18.618 68.887 0 0 0 34.444-34.444 34.444-34.444 18.618-19.549 18.618-50.269 0-68.887 0 0-340.713-339.782-340.713-339.782z" />
<glyph unicode="&#xe90f;" glyph-name="mail" horiz-adv-x="1090" d="M544.041 942.493c289.032 0 523.231-191.917 523.231-428.759s-234.199-428.759-523.231-428.759c-27.747 0-55.164 1.652-81.59 5.285-112.31-113.631-246.751-133.781-376.237-136.754 0 0 0 27.747 0 27.747 70.028 34.354 130.808 97.445 130.808 169.786 0 9.91-0.991 19.819-2.312 29.399-118.255 78.617-193.899 198.854-193.899 333.295 0 236.841 234.199 428.759 523.231 428.759z" />
<glyph unicode="&#xe910;" glyph-name="pen" d="M953.895 677.218c0 0-220.554 220.554-220.554 220.554s63.015 63.015 63.015 63.015c0 0 220.554-220.554 220.554-220.554s-63.015-63.015-63.015-63.015zM890.88 614.203c0 0-31.508-346.585-31.508-346.585-283.569 0-693.169-315.077-693.169-315.077s-52.25 52.25-52.25 52.25c0 0 269.391 269.391 269.391 269.391 10.765-4.201 22.581-6.564 34.921-6.564 52.25 0 94.523 42.273 94.523 94.523s-42.273 94.523-94.523 94.523c-52.25 0-94.523-42.273-94.523-94.523 0-12.341 2.363-24.156 6.564-34.921 0 0-269.391-269.391-269.391-269.391s-52.25 52.25-52.25 52.25c0 0 315.077 409.6 315.077 693.169 0 0 346.585 31.508 346.585 31.508s220.554-220.554 220.554-220.554z" />
<glyph unicode="&#xe911;" glyph-name="phone" horiz-adv-x="1056" d="M762.56 341.44c-67.52-67.84-67.52-135.36-135.040-135.36s-135.36 67.52-202.88 135.36c-67.52 67.2-135.040 135.040-135.040 202.56s67.52 67.52 135.040 135.040c67.52 67.52-135.040 270.080-202.56 270.080s-202.56-202.56-202.56-202.56c0-135.040 138.88-408.96 270.080-540.48 131.52-131.2 405.44-270.080 540.48-270.080 0 0 202.56 135.040 202.56 202.56s-202.56 270.080-270.080 202.88z" />
<glyph unicode="&#xe912;" glyph-name="prep" d="M909.731 960.233c0 0 67.258-571.345 67.258-571.345s-75.636-8.844-75.636-8.844c0 0-60.044 510.138-60.044 510.138s-636.975 0-636.975 0c0 0-60.044-510.138-60.044-510.138s-75.404 8.844-75.404 8.844c0 0 67.258 571.345 67.258 571.345s773.585 0 773.585 0zM279.273 844.8c0 0 488.029 0 488.029 0s0.931-70.749 0.931-70.749c0 0-488.96-1.862-488.96-1.862s0 72.611 0 72.611zM279.738 704.233c0 0 489.193 0 489.193 0s-0.931-70.516-0.931-70.516c0 0-488.96 0.931-488.96 0.931s0.698 69.585 0.698 69.585zM279.738 564.829c0 0 488.262 0 488.262 0s0-70.516 0-70.516c0 0-488.96-0.698-488.96-0.698s0.698 71.215 0.698 71.215zM278.342 448.465c0 0 489.658 0 489.658 0s0.931-71.215 0.931-71.215c0 0-489.891 0.698-489.891 0.698s-0.698 70.516-0.698 70.516zM997.469 307.433c0 0-954.88 1.396-954.88 1.396-17.687 0-23.971-19.316-18.385-36.073 0 0 104.262-305.571 104.262-305.571 5.585-16.756 24.436-30.487 42.124-30.487 0 0 704.465 0 704.465 0 17.687 0 36.538 13.731 42.124 30.487 0 0 105.658 308.596 105.658 308.596 5.585 16.524-5.585 33.047-23.273 33.047zM651.636 192.698c0 0-256.931 0-256.931 0s0.698 69.818 0.698 69.818c0 0 255.535 0 255.535 0s0.698-69.818 0.698-69.818z" />
<glyph unicode="&#xe913;" glyph-name="right-arrow" d="M969.076 390.284c0 0-408.669-408.669-408.669-408.669-18.618-18.618-49.338-18.618-68.887 0 0 0-34.444 34.444-34.444 34.444-18.618 19.549-18.618 50.269 0 68.887 0 0 340.713 340.713 340.713 340.713s-340.713 339.782-340.713 339.782c-18.618 18.618-18.618 49.338 0 68.887 0 0 34.444 34.444 34.444 34.444 19.549 18.618 50.269 18.618 68.887 0 0 0 408.669-408.669 408.669-408.669 9.309-9.309 13.964-22.342 13.964-34.444 0-13.033-4.655-26.065-13.964-35.375zM627.433 425.658c0-13.033-4.655-26.065-13.964-35.375 0 0-408.669-408.669-408.669-408.669-18.618-18.618-50.269-18.618-68.887 0 0 0-34.444 34.444-34.444 34.444-18.618 19.549-18.618 50.269 0 68.887 0 0 339.782 340.713 339.782 340.713s-339.782 339.782-339.782 339.782c-18.618 18.618-18.618 49.338 0 68.887 0 0 34.444 34.444 34.444 34.444 18.618 18.618 50.269 18.618 68.887 0 0 0 408.669-408.669 408.669-408.669 9.309-9.309 13.964-22.342 13.964-34.444z" />
<glyph unicode="&#xe914;" glyph-name="setting" horiz-adv-x="1101" d="M1076.224 352c0 0 0 188.416 0 188.416s-159.744 28.416-159.744 28.416c-5.888 18.176-13.312 35.84-22.016 52.48 0 0 88.064 121.344 88.064 121.344s-138.496 135.936-138.496 135.936c0 0-122.88-86.528-122.88-86.528-17.152 8.704-35.072 16.128-53.504 22.016 0 0-24.832 146.688-24.832 146.688s-195.584 0-195.584 0c0 0-24.832-146.688-24.832-146.688-18.688-5.888-36.608-13.312-53.76-21.76 0 0-122.88 86.272-122.88 86.272s-138.24-135.936-138.24-135.936c0 0 87.808-121.088 87.808-121.088-8.448-16.896-15.872-34.56-22.016-52.736 0 0-149.248-24.576-149.248-24.576s0-192.256 0-192.256c0 0 149.76-24.576 149.76-24.576 5.888-17.92 13.312-35.328 22.016-51.968 0 0-88.32-121.6-88.32-121.6s138.24-136.192 138.24-136.192c0 0 123.648 87.040 123.648 87.040 16.896-8.192 34.56-15.616 52.736-21.504 0 0 25.088-147.456 25.088-147.456s195.584 0 195.584 0c0 0 24.832 147.456 24.832 147.456 18.432 5.888 35.84 13.312 52.736 21.504 0 0 123.904-87.040 123.904-87.040s138.24 136.192 138.24 136.192c0 0-88.32 121.6-88.32 121.6 8.704 16.64 15.872 34.048 22.016 51.968 0 0 160 24.576 160 24.576zM545.024 320c-71.936 0-130.304 57.344-130.304 128.256 0 70.656 58.368 128 130.304 128s130.304-57.344 130.304-128c0-70.912-58.368-128.256-130.304-128.256z" />
<glyph unicode="&#xe915;" glyph-name="support" d="M523.481 945.416c-275.859 0-499.278-223.728-499.278-499.278 0-275.859 223.418-499.588 499.278-499.588s499.588 223.728 499.588 499.588c0 275.549-223.728 499.278-499.588 499.278zM336.368 446.138c0 103.331 83.782 187.113 187.113 187.113 103.641 0 187.423-83.782 187.423-187.113 0-103.641-83.782-187.423-187.423-187.423-103.331 0-187.113 83.782-187.113 187.423zM927.185 278.575c0 0 0 0 0 0s-172.839 71.68-172.839 71.68c12.102 29.479 18.928 61.75 18.928 95.884 0 33.823-6.827 66.095-19.239 95.573 0 0 119.156 49.338 119.156 49.338s53.993 22.342 53.993 22.342c21.411-51.821 33.202-107.985 33.202-167.253s-11.792-116.053-33.202-167.564zM690.735 849.842c0 0 0 0 0 0s-71.68-173.149-71.68-173.149c-29.479 12.412-61.75 18.928-95.573 18.928s-66.095-6.516-95.573-18.928c0 0-33.513 81.299-33.513 81.299s-38.167 91.85-38.167 91.85c51.51 21.411 107.985 33.202 167.253 33.202s115.743-11.792 167.253-33.202zM119.777 613.392c0 0 91.85-38.167 91.85-38.167s80.989-33.513 80.989-33.513c-12.102-29.479-18.928-61.75-18.928-95.573 0-34.133 6.827-66.405 18.928-95.884 0 0-172.839-71.68-172.839-71.68-21.411 51.51-33.202 108.296-33.202 167.564s11.792 115.433 33.202 167.253zM356.228 42.124c0 0 22.342 53.993 22.342 53.993s49.338 119.156 49.338 119.156c29.479-12.412 61.75-18.928 95.573-18.928s66.095 6.516 95.573 18.928c0 0 71.68-173.149 71.68-173.149-51.51-21.411-107.985-33.202-167.253-33.202s-115.743 11.792-167.253 33.202z" />
<glyph unicode="&#xe916;" glyph-name="test" horiz-adv-x="975" d="M359.619 825.905c0-73.63 59.733-133.364 133.364-133.364s133.364 59.733 133.364 133.364c0 73.63-59.733 133.364-133.364 133.364s-133.364-59.733-133.364-133.364zM642.682 708.632c0-73.63 59.49-133.364 133.364-133.364 73.63 0 133.364 59.733 133.364 133.364s-59.733 133.364-133.364 133.364c-73.874 0-133.364-59.733-133.364-133.364zM826.514 425.813c0-36.815 29.745-66.804 66.56-66.804s66.804 29.989 66.804 66.804c0 36.815-29.989 66.56-66.804 66.56s-66.56-29.745-66.56-66.56zM709.242 142.75c0-36.815 29.989-66.56 66.804-66.56s66.56 29.745 66.56 66.56c0 36.815-29.745 66.804-66.56 66.804s-66.804-29.989-66.804-66.804zM426.423 25.722c0-36.815 29.745-66.804 66.56-66.804s66.804 29.989 66.804 66.804c0 36.815-29.989 66.56-66.804 66.56s-66.56-29.745-66.56-66.56zM143.36 142.75c0-36.815 29.989-66.56 66.804-66.56s66.56 29.745 66.56 66.56c0 36.815-29.745 66.804-66.56 66.804s-66.804-29.989-66.804-66.804zM109.958 708.632c0-55.101 44.861-99.962 100.206-99.962 55.101 0 99.962 44.861 99.962 99.962 0 55.345-44.861 99.962-99.962 99.962-55.345 0-100.206-44.617-100.206-99.962zM17.798 425.813c0-41.448 33.646-75.093 75.093-75.093s75.093 33.646 75.093 75.093c0 41.448-33.646 74.85-75.093 74.85s-75.093-33.402-75.093-74.85z" />
<glyph unicode="&#xe917;" glyph-name="twitter" horiz-adv-x="1152" d="M1148.16 817.92c-41.6-19.2-87.040-32-134.4-37.12 48 28.8 85.12 74.88 103.040 129.92-45.44-26.88-95.36-46.72-149.12-56.96-42.88 45.44-103.68 74.24-171.52 74.24-129.28 0-234.24-105.6-234.24-234.88 0-18.56 1.92-36.48 5.76-53.76-195.2 9.6-368 103.040-483.2 245.12-20.48-34.56-32.64-74.88-32.64-117.76 0-81.28 41.6-152.96 104.96-195.2-38.4 1.28-74.88 11.52-106.24 28.8 0-0.64 0-1.92 0-2.56 0-113.92 80.64-208.64 188.16-230.4-19.84-5.12-40.32-7.68-62.080-7.68-14.72 0-30.080 1.28-44.16 3.84 30.080-93.44 116.48-161.28 219.52-163.2-80.64-62.72-181.76-100.48-291.84-100.48-19.2 0-37.76 1.28-55.68 3.2 103.68-66.56 227.2-104.96 359.68-104.96 431.36 0 667.52 357.76 667.52 667.52 0 10.24 0 20.48-0.64 30.72 46.080 32.64 85.76 74.24 117.12 121.6z" />
<glyph unicode="&#xe918;" glyph-name="working" horiz-adv-x="1097" d="M1081.539 142.263c0 0-316.709 316.709-316.709 316.709-19.505 19.505-51.688 19.505-71.192 0 0 0-23.65-23.893-23.65-23.893s-193.341 193.097-193.341 193.097c0 0 325.973 331.093 325.973 331.093s-334.75 0-334.75 0c0 0-159.208-163.109-159.208-163.109s-13.897 18.773-13.897 18.773c0 0-75.093-0.975-75.093-0.975s0.731-71.924 0.731-71.924c0 0 17.067-17.067 17.067-17.067s-216.259-216.259-216.259-216.259c0 0 167.985-167.985 167.985-167.985s216.259 216.259 216.259 216.259c0 0 193.097-193.097 193.097-193.097s-23.65-23.65-23.65-23.65c-19.749-19.749-19.749-51.688 0-71.436 0 0 316.465-316.465 316.465-316.465 19.749-19.505 51.688-19.505 71.192 0 0 0 118.735 118.735 118.735 118.735 19.749 19.505 19.749 51.688 0.244 71.192z" />
</font>
</defs>
</svg>
